<?xml version="1.0" encoding="UTF-8" standalone="no"?>
<!-- Created for MapSVG plugin: http://mapsvg.com -->

<svg
   mapsvg:geoViewBox="16.113807 48.586431 22.897693 45.736783"
   width="36.919998"
   height="34.76001"
   version="1.1"
   id="svg1"
   xmlns="http://www.w3.org/2000/svg"
   xmlns:svg="http://www.w3.org/2000/svg"
   xmlns:mapsvg="http://mapsvg.com">
  <defs
     id="defs1" />
  <path
     d="m 16.539994,5.6201172e-6 -0.28,0.5399999998828 1.08,0.77999998 2.12,0.44 1.2,1.68 -0.02,0.89 -0.76,0.09 2.6,1.74 -1.17,0.68 2.13,2.24 2.21,0.28 1,1.0500004 2.22,-0.6100004 1.69,3.8000004 4.96,-0.91 -0.39,2.99 1.79,3.9 -3,0.91 -1.84,2.79 -1.39,-0.28 -1.41,2.58 -0.6,-0.23 -3.36,3.29 -2.4,4.58 -2.72,0.57 -0.89,0.97 -3.83,-3.88 0.63,-1.03 -1.94,-2.39 -4.6400005,2.92 -1.01,-1.17 -5.68,2.11 -0.58,-2.22 0.98,-1.06 -0.43,-2.62 1.72,-1.59 0.16,-2.16 -0.7,-0.45 1.08,-1.34 -1.73,-2.84 -1.45,0.01 -1.00999999,-1.21 0.87999999,-1 -1.07999999,-1.03 0.79999999,-1.59 -1.43999999,-0.47 0.78,-0.12 0.05,-2.6900004 -0.8699999992577,0.02 1.2899999892577,-1.04 -0.99999999,-2.78 1.90999999,-1 2.41,0.83 1.11,-1.59 4.03,-0.25 -0.79,-2.34999998 1.5400005,-0.7799999998827 3.18,0.4099999998827 -0.32,2.64999998 1.98,-3.03999998 z"
     title="Budapest"
     id="HU-BU" />
</svg>
