<?xml version="1.0" encoding="UTF-8" standalone="no"?>
<!-- Created for MapSVG plugin: http://mapsvg.com -->

<svg
   mapsvg:geoViewBox="16.113807 48.586431 22.897693 45.736783"
   width="123.04999"
   height="161.10001"
   version="1.1"
   id="svg1"
   xmlns="http://www.w3.org/2000/svg"
   xmlns:svg="http://www.w3.org/2000/svg"
   xmlns:mapsvg="http://mapsvg.com">
  <defs
     id="defs1" />
  <path
     d="m 15.320003,14.279999 0.72,-1.85 -1.69,-2.8700001 6,1.3500001 0.21,0.75 3.84,1.88 2.27,-1.24 0.76,-2.7200001 3.15,-1.05 2.39,-3.28 3.31,0.13 0.81,1.25 2.03,-4.66 2.39,-0.65 1.03,-1.31999999375 1.64,0.31000000375 5.37,5.37999999 -2.73,3.25 -1.92,4.3300001 3.71,5.28 2.77,-3.48 -0.18,-1.35 1.33,-0.01 4.31,-4.0800001 4.39,1.2800001 2.67,-8.7600001 5.08,1.89 2.21,-2.05 2.97,5.17 2.08,6.7300001 4.04,4.57 v 0 l -3.22,1.34 -7.57,-2.3 -3.62,4.87 -1,-1.05 -2.54,2.45 5.06,6.18 0.54,3.86 2.04,0.02 2.17,2.54 1.28,0.07 3.18,3.79 -0.38,1.73 1.91,-0.75 1.98,0.51 1.83,-1.76 -0.12,-1.31 1.17,-0.66 0.9,0.8 2.96,-1.31 -0.41,-0.99 1.43,-1.22 3.39,2.96 1.35,-2.52 2.79,-2.3 0.23,-1.17 -2.36,-6.76 v 0 l 0.83,-0.06 3.23,-6.86 4.829997,3 4.88,1.43 -0.12,-2.41 1.41,-2.41 6.4,-2.56 2.29,1.5 v 0 l 3.29,1.85 0.89,1.29 -0.93,0.94 0.41,1.92 -2.46,1.16 0.01,1.41 3.28,0.44 1.54,2.83 -3.17,1.59 -0.23,1.32 -3.15,2.39 -1.83,-0.79 -0.78,0.5 -1.13,2.53 -0.94,-0.88 -2.65,2.16 -0.88,-0.25 1.5,2.02 1.58,0.29 0.57,-0.71 0.34,1.13 -3.13,0.57 -0.12,2.18 2.67,1.76 0.51,-1.37 -0.73,-1.67 1.06,-0.51 1.54,1.58 0.03,1.01 v 0 l -3.33,3.01 -5.13,7.01 3.91,4.22 -2.77,7.7 1.21,1.66 -0.49,2.79 0.49,1.53 -4.71,5.5 -4.699997,-3.9 -10.01,6.3 2.64,3.28 3.62,-0.68 4.11,4 0.53,2.52 -1.52,2.22 1.58,3.15 -1.83,4.52 -2.11,1.790001 -3.44,-2.320001 -6.8,5.250001 -2,-1.55 -5.95,1.9 0.68,2.21 2.51,3.24 -4.93,5.3 3.88,5.55 1.6,4.4 v 0 l -1.25,0.86 -1.76,-1.21 -2.64,2.59 -6.15,-0.99 -0.92,1.95 -4.5,2.43 1.81,3.23 -5.38,3.11 0.04,1.86 -4.53,4.51 -3.1,1.33 -1.48,-1.99 -7.35,4.67 1.77,2.92 -0.52,0.48 -1.02,-1.07 -12.42,0.03 -1.08,-5.04 -2.66,-0.46 -3.67,5.07 1.26,4.61 -6.01,0.12 -1.65,2.05 1.18,3.04 -1.17,0.12 -0.79,-1.14 -2.23,0.76 -4.9800003,-1.15 -2.46,2.45 -1.46,-0.55 0.37,1.31 -3.55,0.8 -0.76,-1.27 -0.61,0.69 v 0 l -1.40000003,-1.25 0.69,-1.66 2.84000003,-1.56 1.49,0.06 -2.31,-2.09 3.52,-7.59 -2.05,-1.61 0.08,-1.3 2.18,-0.87 -2.51,-1.26 -0.88,-4.43 1.25,-1.39 -2.7,-1.12 v 0 l -0.09,-1.41 1.24,0.56 0.79,-2.16 L 2.6660155e-6,130.36 0.08000267,128.07 l 1.01000003,-1.2 1.34,-0.25 -0.34,2.02 0.62,1.31 2,-5.62 1.75,-0.6 -0.53,-1.5 0.74,-2.01 -3.32,2.31 -1.17,-0.8 2.92,-3.43 0.76,0.65 1.04,-1.17 -0.84,-3.97 0.95,-0.13 1.76,1.34 1.4700003,-0.17 0.99,-5.91 -2.1200003,-3.58 -1.21,-8.240001 0.42,-2.07 2.8300003,-4.83 0.04,-3.79 -2.3800003,-5.66 -0.25,-5.59 -2.67,-4.07 -0.26,-2.01 2.08,-3.23 4.1300003,-0.62 3.46,-1.98 3.25,-4.96 0.16,-2.36 -1.73,-3.17 -1.23,-5.01 -1.69,-3.27 -2.52,-2.34 -0.16,-5.42 v 0 l 2.97,-8.05 v 0 l 0.87,-2.18 -1.39,-5.84 0.85,-3.06 v 0 z"
     title="Bács-Kiskun"
     id="HU-BK" />
</svg>
