<?xml version="1.0" encoding="UTF-8" standalone="no"?>
<!-- Created for MapSVG plugin: http://mapsvg.com -->

<svg
   mapsvg:geoViewBox="16.113807 48.586431 22.897693 45.736783"
   width="187.22998"
   height="127.11"
   version="1.1"
   id="svg1"
   xmlns="http://www.w3.org/2000/svg"
   xmlns:svg="http://www.w3.org/2000/svg"
   xmlns:mapsvg="http://mapsvg.com">
  <defs
     id="defs1" />
  <path
     d="m 125.49001,0 0.87,1.43 3.35,2.23 1.12,-0.22 1.46,1.44 -0.03,1.43 2.46,4.28 1.66,-0.49 1.62,1.03 1.23,-1.4000003 1.08,0.8500003 0.75,-0.3 0.9,2.39 -0.04,3.26 3.57,7.03 0.11,2.76 0.82,1.05 1.03,-0.22 1.84,1.09 -0.13,1.64 1.16,0.55 -0.18,1.55 1.25,0.77 3.65,1.23 2.98,-0.2 2.07,1.3 0.94,-0.5 0.4,-3.94 1.69,0.01 0.66,1.45 1.35,-1.15 0.74,0.53 -0.43,-0.93 0.54,-0.66 0.28,0.98 0.49,-0.95 0.23,0.69 0.85,-0.5 1.63,0.95 0.06,-1.3 1.86,-0.99 3.37,0.31 3.83,-2.2 2.53,2.04 1.84,-1.22 0.93,1.93 0.84,-1.24 0.27,0.72 1.76,-0.32 v 0 l -0.42,1.6 0.9,0.9 -1.77,0.06 1.67,1.1 -1.44,0.33 -2.34,3.27 0.86,2.3 -2.22,-0.27 0.05,1.39 -1.56,-0.93 1.09,1.18 -0.69,0.97 -0.47,-1.26 -1.34,-0.77 0.09,1.19 -2.02,0.03 1.04,-1.92 -1.13,0.15 -2.67,2.43 -0.63,1.3 0.48,1.01 -0.96,-0.4 -2.25,2.63 -0.66,-0.67 0.09,1.16 -1.21,0.58 -0.62,1.49 -2.1,-0.87 -2,1.18 -2.04,-0.38 -0.91,2.13 -1.02,-2.48 -0.4,1.37 -1.09,-1.09 0.15,1.82 -1.38,0.26 0.19,1.36 -1.03,0.26 -0.51,1.28 -1.17,-0.63 -0.35,1.69 -1.5,0.63 0.08,-1.75 -1.7,0.91 -0.76,-0.7 -0.33,1.58 -0.83,-0.7 -4.2,0.61 -4.82,-0.56 -3.15,-1.85 -0.54,1.02 -1.51,0.09 -3.46,2.05 0.36,1.32 -1.57,0.41 -0.11,-0.61 -2.03,-0.42 -0.83,1.85 -1.28,-1.66 -1.23,0.07 -1.73,2.79 0.47,2.85 -1.31,1.92 0.76,2.01 2.49,2.21 -0.24,0.7 -1.33,-0.36 0.38,1.44 1.43,-0.19 0.84,0.92 -2.23,0.83 -0.09,2.5 -0.65,0.34 -1.47,-1.02 -0.53,2.58 -4.83,0.01 -1.57,1.56 -1.64,-1.29 -1.88,0.23 -0.11,-1.26 -2.71,0.08 -1.06,-2.22 -2.73,2.14 0.48,1.57 -0.92,0.62 -2.45,-0.86 -1.98,0.4 0.26,-1.8 -0.63,-0.63 -1.270004,0.48 -1.75,-0.86 -0.32,1.16 -4.52,4.48 2.58,3.88 -0.49,0.74 1.8,1.26 v 0 l -0.98,4.06 -1.73,1.46 1.34,0.69 1.58,-0.44 0.1,0.73 -3.77,2.96 0.01,3.55 -2.5,1.54 2.1,4.45 -1,1.47 -0.22,2.36 -1.45,1.92 -0.56,3.26 -0.64,0.66 -1.55,-1.53 -1.81,0.7 -0.56,2.43 0.59,1.85 -4.49,0.93 -1.48,1.6 0.19,1.25 -1.03,-0.21 -1.96,1.33 -1.49,-1.73 0.15,2.56 1.36,0.38 -1.08,0.69 v 0 l -1.48,-0.27 v 0 h -2.02 l 0.54,2.13 1.75,1.07 -0.58,0.82 -1.11,-0.52 -0.44,-1.51 -1.21,-0.08 -0.11,-1.41 -0.93,0.13 v 0 l -3.04,-1.76 -2.76,2.04 0.61,1.61 v 0 l -5.88,-4.64 -1.25,0.48 -1.3,-1.03 -0.39,0.9 -3,-0.07 -5.26,-3.17 -0.82,-1.08 2.07,-2.78 -5.88,-4.98 -1.13,-2.54 -1.14,-0.78 -0.37,-2.43 1.11,-2.45 -0.77,-3.29 -3.5,-1.55 -1.58,-2.76 v 0 l 1.54,-2.04 v 0 l 0.67,-0.09 v 0 l 0.64,0.67 1.91,-0.07 -0.77,-1.26 2.4,-1.79 -0.46,-1.42 -3.71,-1.89 -2.02,-2.13 3.58,-7.23 0.04,-2.6 -1.03,-2.15 1.59,-0.29 0.76,-1.07 v 0 l 11.15,-0.87 3.68,2.97 3.3,0.81 1.48,3.12 3.52,-1.86 1.34,-0.22 1.35,0.86 1.78,-0.73 1.5,-1.87 1.69,-0.26 1.13,-3.66 -1.2,-0.52 0.34,-4.17 -1.63,-1.53 0.08,-1.05 -4.18,-1.23 -2.27,0.62 -2.35,-2.41 -1.01,1.16 -6.06,-0.34 -5.02,3.06 -7.09,-0.26 -3.83,1.92 v 0 l -2.63,-4.64 -3.36,0.19 -0.9,-0.59 -1.37,0.56 0.33,1.71 -2.36,2.83 -0.65,3.18 -2.91,-2.19 -0.72,-1.93 -1.55,0.67 -1.21,-0.62 -0.73,3.35 -3.13,1.07 -2.81,-0.6 -1.13,-1.62 -2.7,-1.01 -0.72,-2.92 -3.3599997,-1.1 -2.39,0.71 -0.65,-0.68 v 0 l -0.48,-1.23 -2.12,-0.33 L 6.3281254e-6,56.58 v 0 L 2.5700063,54.58 l -0.91,-0.86 0.78,-0.96 1.01,0.03 3.92,-3.61 0.78,-2.74 -0.42,-1.38 3.7699997,0.67 2.72,-0.38 -0.4,-1.3 2.3,-0.18 0.63,-1.25 -0.73,-0.77 1.23,-0.44 4.09,2.53 2.37,-0.4 -0.44,-1.13 1.67,0.07 1.06,-3.62 2.56,-2.48 0.73,-1.21 -0.49,-0.73 3.81,-4.63 -0.61,-2.1 1.31,-1.78 -0.06,-3.45 2.87,-3.67 1.93,-1.14 -0.55,-1.17 1.81,-1.16 0.97,-1.98 1.14,-0.24 0.25,-3.2600003 -0.75,-2.2699997 1.46,-0.95 1.6,1.29 1.03,-2.26 3.44,1.33 6.46,-3.57 2.16,0.01 3.01,-1.3 1.54,0.62 10.21,-2.48 -0.6,1.06 0.78,-0.22 v 1.85 l 1.71,1.66 4.66,-0.85 1.46,2.67 0.6,-0.52 0.12,0.93 1.28,0.25 0.11,1.46 1.53,-0.07 0.66,0.77 2.92,-2.02 3.46,0.72 0.01,0.69 1.14,-0.61 2.55,1.25 0.57,2.57 1.88,0.88 0.99,-0.26 1.61,-3.07 2.020004,-0.88 0.64,0.6 0.67,-0.86 2,-0.36 -0.02,-0.85 0.72,0.21 0.38,-0.75 1.04,0.45 0.64,-0.7 2.51,1.86 3.48,0.39 0.95,-1.32 -0.5,-0.99 0.61,0.09 0.39,-1.03 -0.63,-0.64 1.07,-0.39 -0.91,-0.28 0.4,-0.66 5.13,0.35 1.96,-0.71 1.42,0.66 0.7,-2.76 z"
     title="Borsod-Abaúj-Zemplén"
     id="HU-BZ" />
  <path
     d="m 38.690006,63.62 3.83,-1.92 7.09,0.26 5.02,-3.06 6.06,0.34 1.01,-1.16 2.35,2.41 2.27,-0.62 4.18,1.23 -0.08,1.05 1.63,1.53 -0.34,4.17 1.2,0.52 -1.13,3.66 -1.69,0.26 -1.5,1.87 -1.78,0.73 -1.35,-0.86 -1.34,0.22 -3.52,1.86 -1.48,-3.12 -3.3,-0.81 -3.68,-2.97 -11.15,0.87 v 0 l -2.13,-3.19 z"
     title="Miskolc"
     id="HU-MI" />
</svg>
