<?xml version="1.0" encoding="UTF-8" standalone="no"?>
<!-- Created for MapSVG plugin: http://mapsvg.com -->

<svg
   mapsvg:geoViewBox="16.113807 48.586431 22.897693 45.736783"
   width="102.90002"
   height="90.780014"
   version="1.1"
   id="svg1"
   xmlns="http://www.w3.org/2000/svg"
   xmlns:svg="http://www.w3.org/2000/svg"
   xmlns:mapsvg="http://mapsvg.com">
  <defs
     id="defs1" />
  <path
     d="m 41.19001,83.41 2.06,-3.99 1.95,0.59 3.55,-1.49 1.59,2.05 3.76,9.17 v 0 l -2.44,-1.37 -0.09,-0.93 -2.34,-2.19 -3.73,1.84 -2.83,-2.12 -0.46,-1.96 z m 41.1,-28.58 2.66,3.44 4.21,2.09 0.14,-0.57 5.14,0.52 0.91,-3.7 4.21,-0.65 1.75,4.43 0.13,4.17 -0.98,3.8 2.44,1.87 v 0 l -2.27,3.54 0.83,5.53 -2.75,-0.32 -1.4,5.5 -3.31,2.84 -1.9,-0.95 -1.51,3.17 -8.52,-6.87 -4.11,-1.68 -0.41,2.87 -2.81,3.17 -2.5,0.22 -3.28,-1.86 -0.52,0.91 -1.2,-1.08 -1.23,1.18 -1.17,-2.51 -3.75,2.64 -0.37,-0.91 -1.82,1.36 -3,3.8 -0.53,-0.66 v 0 l 1.41,-0.71 0.36,-2.12 -0.66,-0.82 1.6,-5.87 -3.87,0.81 -1.47,-0.68 -0.82,-0.84 -0.18,-4.35 h 2.08 l 0.75,0.73 5.28,-0.26 0.6,-4.43 -0.72,-4.06 v 0 l 5.72,-0.18 2.47,-0.86 3.28,-2.32 2.52,-3.39 8.59,-4.95 z M 70.90001,1.0799995 73.63001,-4.8339845e-7 78.58001,4.8099995 l 5.13,-0.05 2.99,2.34 -1.47,4.3700005 0.96,5.95 -1.23,0.03 -0.63,4.68 0.61,0.43 0.23,9.64 -0.73,1.33 1.17,1.58 2.45,0.93 0.27,1.2 -1.33,6.36 0.51,2.66 -2.22,0.71 v 1.74 0 l -6.36,-0.13 -4.8,-6.7 -1.56,0.21 -1.46,-2.42 -3.96,2.18 -1.29,-2.27 -6.06,0.24 0.57,2.88 -3.99,0.95 1.52,2.7 -4.01,3.97 -2.03,-0.81 0.69,-2.99 -0.72,-1.14 -1.67,0.82 -1.7,5.25 0.14,2.4 v 0 0 0 l -1.03,-0.18 -1.15,1.02 0.11,3.86 2.4,1.79 -0.97,2.61 -0.48,-0.64 -2.83,0.04 -1.43,-1.16 -3.26,-0.33 -0.97,2.55 0.48,3.23 -3.27,-1.74 -1.26,0.08 -4.53,4.21 3.24,2.64 4.35,0.85 1.63,1.13 -2.15,3.56 0.38,2.12 1.15,0.31 v 2.04 l -1.28,1.42 -2.65,0.49 v 0 l -8.33,-0.65 -1.79,1.53 -5.31,1.82 -3.22,2.79 -5.18,-2.35 -2.54,-3.1 -1.29,0.03 -1.93,-2.29 v 0 L 3.88001,77.12 9.9902343e-6,71.57 4.94001,66.27 l -2.51,-3.24 -0.69,-2.2 5.96,-1.9 1.99,1.55 6.8,-5.25 3.44,2.32 2.11,-1.79 1.83,-4.53 -1.58,-3.14 1.52,-2.22 -0.53,-2.52 -4.11,-4 -3.62,0.68 -2.64,-3.28 10.01,-6.3 4.71,3.9 4.7,-5.49 -0.49,-1.53 0.5,-2.79 -1.22,-1.66 2.77,-7.69 -3.91,-4.22 5.13,-7.0100005 3.32,-3.00999998 v 0 l 0.39,1.84999998 1.55,0.66 0.67,2.99 1.53,-0.55 -0.51,-1.86 0.86,-0.54 5.67,4.18 2.38,-3.76 1.72,0.37 -0.29,-1.59 1.51,-0.97 2.12,0.56 3.2,3.49 3.27,0.85 1.29,-0.83 0.62,-2.28 4.68,-0.12 z"
     title="Csongrád"
     id="HU-CS" />
  <path
     d="m 48.60001,53.85 -0.14,-2.4 1.7,-5.24 1.66,-0.83 0.73,1.14 -0.69,2.99 2.03,0.81 4.02,-3.97 -1.53,-2.7 3.99,-0.96 -0.57,-2.87 6.06,-0.24 1.3,2.28 3.96,-2.19 1.46,2.42 1.56,-0.21 4.8,6.7 6.36,0.13 v 0 l 0.07,4.29 -1.01,-0.05 -2.07,1.88 v 0 l 0.01,0.98 -8.59,4.95 -2.52,3.39 -3.29,2.32 -2.47,0.86 -5.72,0.18 v 0 l 0.49,-2.15 -5.13,-1.33 z"
     title="Hódmezővásárhely"
     id="HU-HV" />
  <path
     d="m 48.60001,53.85 6.47,10.18 5.13,1.33 -0.49,2.15 v 0 l 0.72,4.06 -0.6,4.43 -5.28,0.26 -0.75,-0.72 h -2.08 l 0.18,4.35 0.82,0.84 1.47,0.68 3.87,-0.81 -1.6,5.88 0.66,0.81 -0.36,2.12 -1.41,0.71 v 0 l -0.13,-1.1 -1.13,0.71 v 0 l -3.76,-9.16 -1.59,-2.06 -3.55,1.5 -1.95,-0.59 -2.05,3.99 v 0 l -2.49,3.58 -2.45,-0.16 -1.19,-3.1 v 0 l 2.65,-0.49 1.28,-1.41 v -2.04 l -1.14,-0.32 -0.38,-2.11 2.15,-3.57 -1.64,-1.13 -4.35,-0.84 -3.24,-2.65 4.53,-4.2 1.27,-0.08 3.27,1.75 -0.48,-3.23 0.97,-2.56 3.26,0.33 1.43,1.16 2.84,-0.04 0.47,0.64 0.98,-2.61 -2.4,-1.78 -0.11,-3.86 1.15,-1.02 z"
     title="Szeged"
     id="HU-SD" />
</svg>
