<?xml version="1.0" encoding="UTF-8" standalone="no"?>
<!-- Created for MapSVG plugin: http://mapsvg.com -->

<svg
   mapsvg:geoViewBox="16.113807 48.586431 22.897693 45.736783"
   width="84.220001"
   height="117.59999"
   version="1.1"
   id="svg1"
   xmlns="http://www.w3.org/2000/svg"
   xmlns:svg="http://www.w3.org/2000/svg"
   xmlns:mapsvg="http://mapsvg.com">
  <defs
     id="defs1" />
  <path
     d="m 59.140006,-1.7041015e-6 0.93,1.9600000041015 -0.72,1.37 0.33,2.83 2.94,5.3299997 2.21,0.04 2.98,4.5 0.33,3.99 -2.82,3.3 5.36,7.36 4.08,3.61 0.37,1.39 -0.61,0.76 1.73,0.41 -0.48,1.3 0.64,1.65 3.56,0.72 -1.03,5.82 -2.35,4.26 -0.78,6.09 2.36,10.18 4.29,3.61 1.76,2.47 v 0 l -0.64,3.34 v 0 l -9.07,0.36 -4.48,1.87 1.21,3.2 1.64,0.62 1.36,2.15 -0.67,0.57 2.92,3.23 3.38,0.32 3.37,-1.24 v 0 l -2.97,8.06 v 0 l -2.01,-0.28 -0.1,0.62 -3.6,0.96 1.42,1.32 -1.25,2.190002 -5.99,4.26 -0.1,2.38 -4.26,0.47 -2.72,2.09 1.26,3.03 -4.8,4.37 -2.35,0.76 -2.14,-0.26 0.29,-2.03 -1.5,-3.21 -0.07,-2.02 -1.01,0.09 -2.67,-1.73 -1.63,-3.19 -4.48,2.48 0.55,2.31 -2.01,0.34 -0.68,-0.59 -1.44,0.97 -3.59,-0.91 -0.05,-2.91 -0.87,-1.46 0.55,-1.12 -1.36,-1.97 -0.18,4.58 -0.71,0.04 -0.25,-2.09 -0.57,1.3 -0.64,-1.97 -1.41,1.72 -2.46,-1.54 -2.08,-0.18 -0.8,-0.83 0.55,-1.76 -0.56,-1.02 -5.04,3.82 -0.08,0.74 -3.53,0.72 v 0 l -1.29,-5.44 1.06,-2.120002 -0.88,-3.73 0.96,-0.49 -1.83,-0.64 2.3,-1.96 -1.91,-5.69 -2.79,-3.65 v 0 l 4.02,-3.48 0.6,-1.83 1.89,-1.13 0.15,-0.94 2.37,-0.71 -0.29,-0.73 -2.08,0.44 -2.12,-3.96 -0.74,-3.49 2.75,-2.18 -1.03,-1.48 0.19,-2.31 -1.16,-4.36 1.07,-2.99 0.02,-4.82 -0.62,-1.18 -1.79,-0.05 -1.99,-1.91 -1.57,-3.43 -1.18,0.01 -3.3899997,2.16 -2.86,-4.19 -1.6,0.41 -0.89,-3.62 1.66,-1.98 -1.93,-0.29 -0.71999997,-1.67 v 0 l -0.2800000018748,-0.73 1.8299999718748,-1.46 2.97,-0.94 -0.67,-1.86 2.5,-3.65 -0.25,-2.71 1.4,-1.17 -0.37,-2.18 2.11,-1 1.2699997,1.65 1.66,-1.06 1,0.65 1.07,-1.21 -0.59,-3.22 4.92,2.4 0.5,3.05 2.43,1.21 1.67,2.57 1.71,0.88 1.61,-1.94 1.18,0.55 2.97,-0.9 -2.31,-2.53 0.42,-1.12 1.68,-1.94 1.66,1.3 2.57,-2.95 0.47,-1.66 2.25,-1.04 v 0 l 2.65,-1.6899997 -0.2,-1.02 0.84,0.12 -1.16,-1.85 1.6,-0.31 -0.64,-2.93 3.68,-0.68 v 0 l 0.85,0.44 1.16,-2.33 1.27,0.29 1.11,-0.93 3.66,1.32 0.79,-0.89 3.46,0.11 z M 33.570006,42.629998 l -1.52,0.65 -0.32,1.42 -2.4,1.55 -3.26,4.28 4.02,7.17 1.68,0.89 0.32,5.83 3.09,-0.51 2.27,-1.55 1.07,1.39 3.41,-4.11 2.36,-1.51 0.98,0.87 1.33,-0.73 -1.85,-4.39 -1.89,0.12 -0.04,-1.24 1.15,-1.59 -1.74,-1.79 -0.15,-1.72 1.55,-2.16 -2.74,-3.1 -2.99,0.2 -2.08,-3.5 -1.8,0.92 z"
     title="Fejér"
     id="HU-FE" />
  <path
     d="m 37.120006,41.209998 0.76,1.38 2.98,-0.2 2.75,3.1 -1.56,2.16 0.16,1.72 1.74,1.79 -1.15,1.59 0.05,1.24 1.89,-0.11 1.85,4.39 -1.32,0.72 -0.98,-0.87 -2.36,1.51 -3.41,4.11 -1.08,-1.39 -2.26,1.55 -3.09,0.51 -0.31,-5.83 -1.68,-0.88 -4.03,-7.17 3.26,-4.28 2.4,-1.55 0.33,-1.42 1.51,-0.65 1.09,-3.25 1.14,-0.29 z"
     title="Székesfehérvár"
     id="HU-SF" />
</svg>
