<?xml version="1.0" encoding="UTF-8" standalone="no"?>
<!-- Created for MapSVG plugin: http://mapsvg.com -->

<svg
   mapsvg:geoViewBox="16.113807 48.586431 22.897693 45.736783"
   width="123.42"
   height="83.979996"
   version="1.1"
   id="svg1"
   xmlns="http://www.w3.org/2000/svg"
   xmlns:svg="http://www.w3.org/2000/svg"
   xmlns:mapsvg="http://mapsvg.com">
  <defs
     id="defs1" />
  <path
     d="m 94.429997,41.419996 1.03,0.13 -0.11,-0.69 3.79,-2.69 2.450003,1.87 6.38,-0.71 3.75,2.38 1.92,5.29 -12.38,6.55 -2.890003,-0.9 -2.59,3.5 -0.43,1.81 -2.17,0.34 -7.3,-2.64 -0.85,-1.57 0.19,-0.92 1.59,0.14 2.77,-1.16 0.92,-6.24 v 0 l 1.51,-2.67 v 0 h 1.06 v 0 z"
     title="Győr"
     id="HU-GY" />
  <path
     d="m 61.109997,0.61000046 0.66,2.26000004 1.19,0.54 6.11,0.32 8.44,9.1099995 2.62,5.65 6.7,2.84 3.07,5.999996 3.98,-0.56 9.290003,8.74 4.82,1.08 1.59,1.2 6.94,-0.88 3.13,0.9 v 0 l 0.84,5.14 -0.93,1.84 -0.08,1.27 0.83,0.87 -1.26,4.59 1.71,2.15 2.15,0.56 -0.76,3.46 -0.98,0.95 0.76,0.44 -1.4,2.77 1.92,1.28 0.07,-0.8 0.9,1.09 -2.54,0.92 -2.34,-1 0.11,2.47 2.41,3.38 -0.04,1.04 -0.56,-0.35 -1.48,1.21 0.14,1.76 -1.41,-0.03 1.17,1.93 -1.39,0.83 v 0 l -1.2,-2.78 -2.41,-1.89 -1.87,2.49 -1.01,-0.19 -0.32,-2.17 -3.75,4.64 -1.73,-2.51 -0.76,0.23 0.35,0.59 -0.77,0.88 0.7,1.25 -2.35,0.43 0.6,-1.62 -0.79,-1.25 -1.79,0.72 -0.740003,-0.82 -0.93,0.53 -0.23,1.5 -1.85,0.65 -0.44,-1.37 -0.83,0.37 -0.59,-0.76 -1.44,1.13 -3.27,-4.1 -2.86,2.72 -5.82,-2.57 -2.87,-0.31 -1.82,1.46 -3.09,-0.78 -0.36,3.25 -1.5,2.18 -6.98,1.42 v 0 h -1.07 v 0 l -4.2,-0.85 -0.69,0.07 -0.13,0.9 -2.239998,-1.69 -1.89,1.58 v 0 l -2.63,-0.74 -1.75,2.73 -5.23,1.56 -1.6,1.52 -0.5,-0.36 2.28,-5.8 -1.51,-2.67 -5.33,4.89 -2.63,0.98 -1.94,2.78 -1.38,-2.17 -1.41,-0.05 -0.2,-0.92 -2.44,0.69 -1.59,-1.41 -1.55,-3.24 -3.46,1.88 -0.56,-1.17 -1.4,0.94 -0.54,-0.89 -2.59,1.08 -3.6,3.11 -2.28,-1.5 -0.9999998,0.39 -2.86,-3.48 v 0 l 1.42,-1.29 0.72,-2.39 -1.58,-3.45 0.86,-1.16 0.91,0.59 1.5699998,-0.81 2.37,-3.93 -1.57,-1.01 -0.71,-1.57 -1.5799998,-0.09 -0.78,-1.07 1.07,-1.44 -0.73,-2.09 0.35,-1.4 -1.06,-0.28 -0.59,-2.07 -2.26,-0.79 -3.37,1.43 -1.89000002714841,-0.85 v 0 L 4.1899992,51.159996 l 6.4899998,-1.19 2.03,1.06 3.29,-5.7 v 0 l 7.33,0.2 1.06,-2.89 2.43,-2.21 0.54,4.14 1.04,0.2 18.71,-2.66 -1.82,-2.54 -0.33,-5.56 -1.33,-3.21 1.99,-2.09 -2.37,-2.61 0.42,-1.34 -3.73,-2.839996 0.65,-1.22 2.09,0.12 3.25,-1.35 0.69,0.43 1.44,-2.66 -0.38,-1.68 1.6,-2.6 -1.97,-1.24 2.18,-3.3799995 -1.93,-1.42 6.92,-5.54 2.62,-1.05000004 2.219998,0.46 1.53,-0.78999999515608 z m 31.96,42.62999554 v 0 h -1.06 v 0 l -1.51,2.67 v 0 l -0.92,6.24 -2.77,1.16 -1.59,-0.13 -0.19,0.92 0.85,1.56 7.3,2.64 2.17,-0.33 0.43,-1.81 2.59,-3.5 2.890003,0.9 12.39,-6.54 -1.92,-5.29 -3.75,-2.38 -6.38,0.71 -2.440003,-1.87 -3.79,2.69 0.11,0.7 -1.04,-0.13 z"
     title="Győr-Moson-Sopron"
     id="HU-GS" />
</svg>
