<?xml version="1.0" encoding="UTF-8" standalone="no"?>
<!-- Created for MapSVG plugin: http://mapsvg.com -->

<svg
   mapsvg:geoViewBox="16.113807 48.586431 22.897693 45.736783"
   width="108.19"
   height="97.949997"
   version="1.1"
   id="svg1"
   xmlns="http://www.w3.org/2000/svg"
   xmlns:svg="http://www.w3.org/2000/svg"
   xmlns:mapsvg="http://mapsvg.com">
  <defs
     id="defs1" />
  <path
     d="m 79.100006,34.86 -2.35,0.55 -0.49,3.97 -4.15,1.17 -1.74,-0.5 0.29,-1.77 -2.11,-1.56 -1.27,-2.14 v 0 l 0.19,-0.79 v 0 l 0.68,-0.16 -0.36,-2.66 -1.83,-6.42 2.51,-4.96 3.65,1.21 1.22,1.22 -0.58,2.65 2.01,3.87 2.6,1.69 1.73,-1.4 1.35,0.77 -0.29,0.83 1.15,2.3 v 0 0 0 l -0.67,0.09 v 0 z"
     title="Eger"
     id="HU-EG" />
  <path
     d="m 46.990006,1.4100005 0.65,0.68 2.39,-0.71 3.36,1.1 0.72,2.92 2.7,1.01 1.13,1.62 2.81,0.6 3.13,-1.07 0.73,-3.35 1.21,0.62 1.55,-0.67 0.72,1.93 2.91,2.19 0.65,-3.18 2.36,-2.83 -0.33,-1.71000004 1.37,-0.55999999515626 0.9,0.58999999515626 3.36,-0.19 2.63,4.64000004 v 0 l 0.17,3.27 2.13,3.1899995 v 0 l -0.76,1.07 -1.59,0.29 1.03,2.15 -0.04,2.6 -3.58,7.23 2.02,2.13 3.71,1.89 0.46,1.42 -2.4,1.79 0.77,1.26 -1.91,0.07 -0.64,-0.67 v 0 l -1.15,-2.3 0.29,-0.83 -1.35,-0.77 -1.73,1.4 -2.6,-1.69 -2.01,-3.87 0.58,-2.65 -1.22,-1.22 -3.65,-1.21 -2.51,4.96 1.83,6.42 0.36,2.66 -0.68,0.16 v 0 l -0.19,0.79 v 0 l 1.27,2.14 2.11,1.56 -0.29,1.77 1.74,0.5 4.15,-1.17 0.49,-3.97 2.35,-0.55 v 0 l 1.58,2.76 3.5,1.55 0.77,3.289996 -1.11,2.45 0.37,2.43 1.14,0.78 1.13,2.54 5.88,4.98 -2.07,2.78 0.82,1.08 5.26,3.17 3,0.07 0.39,-0.9 1.300004,1.03 1.25,-0.48 5.88,4.64 v 0 l -1.08,1.69 -2.21,-0.07 -1.72,1.26 0.11,3.28 -1.72,1.19 1.05,1.67 -0.52,1.61 -2.510004,1.08 -0.87,1.96 -5.12,2.55 -2.91,2.55 -5.02,1.75 -1.76,4.43 -1.58,0.64 -2.16,-1.01 -0.35,-1.49 1.15,-1.39 -2.87,1.08 -0.45,0.81 1.07,4.78 -1.29,1.49 -2.59,1.06 -2.07,-0.66 0.21,-2.56 -2.7,0.97 -1.42,-0.31 -1.2,-1.61 -2.95,-4.28 1.25,-2.96 -1.28,-4.16 -3.12,-1.08 0.32,-1.03 -2.55,-0.93 -2.06,-6.16 -3.5,0.4 -6.02,2.07 2.9,3.25 -2.04,1.57 -8.03,-3.61 -1.3,-1.76 1.09,-2.95 -1.13,-1.6 -0.16,-4.29 -0.77,-1.76 -2.18,-0.48 -0.73,1.02 -4.43,1.87 -3.52,-1.62 -0.53,4.93 -2.27,1.01 -0.56,1.86 -1.85,1.84 -5.87,-3.46 -4.24,1.73 -0.36,3.27 -1.48,-0.98 -1.7199997,0.33 v 0 l -1.21,-1.28 0.36,-2.17 -1.64,-4.29 -1.72,-0.49 -2.59,-5.09 1.38,-3.34 -3.1499999718752,-3.12 v 0 l 3.8899999718752,-3.49 1.12,0.77 1.53,-1.17 -0.59,-0.49 0.84,-1.51 -1.32,-3.47 1.87,-0.93 0.93,1.94 0.18,-1.38 1.47,-0.3 0.5499997,-1.08 2.89,0.15 -0.47,-0.89 1.34,-2.59 2.91,-2.839996 0.56,-5.03 0.84,-0.21 4.64,4.17 1.48,-0.7 0.74,-2.06 -1.32,-1.28 -2.71,-0.82 -0.38,-1.75 6.18,-1.05 2.24,1.77 2.65,-0.08 1.34,-3.25 2.34,-1.28 -0.25,-2.71 1.9,-0.99 -0.91,-1.37 0.55,-1.15 4.39,-1.58 -1.51,-1.54 -0.55,-4.15 0.81,-0.27 -2.71,-2.02 0.16,-0.59 -1.54,-0.42 -0.22,-1.7699995 6.19,-2.16 0.68,-2.21 2.34,0.25 0.62,-2.1 z"
     title="Heves"
     id="HU-HE" />
</svg>
