<?xml version="1.0" encoding="UTF-8" standalone="no"?>
<!-- Created for MapSVG plugin: http://mapsvg.com -->

<svg
   mapsvg:geoViewBox="16.113807 48.586431 22.897693 45.736783"
   width="124.59"
   height="122.96"
   version="1.1"
   id="svg1"
   xmlns="http://www.w3.org/2000/svg"
   xmlns:svg="http://www.w3.org/2000/svg"
   xmlns:mapsvg="http://mapsvg.com">
  <defs
     id="defs1" />
  <path
     d="m 106.22,1.7599992 -0.48,4 1.71,5.6299998 4.4,2 4.79,-1.92 2.6,1.45 1.54,2.47 -0.1,7.87 1.51,2.31 -1.05,2.46 3.45,17.12 -1.05,12.03 -3.98,2.85 v 0 l -2.8,5.7 -1.22,-0.02 -1.9,1.85 -1.44,-0.03 -4.33,3.35 1.77,3.58 -2.01,0.47 -0.23,1.3 1.11,2.38 -0.41,2.08 1.14,1.42 -1.53,-0.58 -0.74,1.51 -2.42,1.04 0.55,0.36 -0.88,0.22 0.13,1.03 -4.439997,0.03 -0.24,-2.18 -2.5,1.35 -0.29,1.41 -1.48,-0.13 -0.34,3.47 0.98,0.95 -0.66,2.78 1.25,0.45 0.27,1.96 -1.25,-0.47 -0.72,0.73 2.08,0.32 -0.17,2.09 -1.96,3.030001 -1.05,0.74 -1.66,-0.46 -2.86,1.87 -3.97,-2.32 -1.66,0.73 -2.57,-0.62 -0.75,1.78 -2.6,1.13 -5.02,-0.21 -4.53,5.05 1.37,7.23 v 0 l -1.81,2.29 -4.69,0.12 -0.62,2.28 -1.29,0.83 -3.27,-0.86 -3.2,-3.49 -2.12,-0.56 -1.51,0.97 0.29,1.59 -1.72,-0.37 -2.38,3.76 -5.67,-4.18 -0.86,0.54 0.52,1.86 -1.54,0.55 -0.67,-2.99 -1.55,-0.66 -0.38,-1.85 v 0 l -0.03,-1.01 -1.54,-1.58 -1.06,0.51 0.73,1.67 -0.51,1.37 -2.67,-1.76 0.12,-2.18 3.13,-0.57 -0.34,-1.13 -0.57,0.71 -1.58,-0.29 -1.5,-2.02 0.88,0.25 2.65,-2.16 0.94,0.88 1.13,-2.53 0.78,-0.5 1.83,0.79 3.15,-2.39 0.23,-1.32 3.17,-1.59 -1.54,-2.830001 -3.28,-0.44 -0.01,-1.41 2.46,-1.16 -0.41,-1.92 0.93,-0.94 -0.89,-1.29 -3.29,-1.85 v 0 l 1.58,-3.49 -2.02,-1.11 -0.88,-4.5 -2.26,-3.98 -0.57,-2.57 1.4,-3.34 v 0 l 4.98,3.2 -0.64,0.82 1.42,1.55 4.46,0.3 1.1,1.98 2.11,1.12 2.87,0.03 1.22,-2.13 1.13,0.66 1.32,-2.08 -1.44,-4.15 -2.9,-1.46 1.39,-5.44 1.13,-0.96 -2.77,0.34 0.03,-0.78 1.41,-0.41 -1.74,-2.41 -1.98,0.08 -3.44,-3.05 -2.27,-0.6 -1.94,3.02 -3.57,2.77 v 0 l -0.42,-1.61 -3.16,-2.39 -5.13,-1.81 2.72,-6.75 -2.43,-3.6 -0.19,-2.28 -2.72,-3 -4.13,-1.91 -7.51,-5.8 -2.76,-4.33 -4.5900003,-3.9 3.7700003,-5.64 -0.99,-0.65 -1.28,0.87 -2.5400003,-0.61 -3.08,2.47 -4.60000003,-4.08 0.48,-1.28 -0.5900000039847,-0.69 1.4100000339847,-3.52 v 0 l 1.72,-0.33 1.48,0.98 0.36,-3.2699998 4.24,-1.73 5.8700003,3.4599998 1.85,-1.8399998 0.56,-1.86 2.27,-1.01 0.53,-4.93 3.52,1.62 4.43,-1.87 0.73,-1.01999999 2.18,0.47999999 0.77,1.76 0.16,4.29 1.13,1.6 -1.09,2.9499998 1.3,1.76 8.03,3.61 2.04,-1.57 -2.9,-3.25 6.02,-2.07 3.5,-0.3999998 2.06,6.1599998 2.55,0.93 -0.32,1.03 3.12,1.08 1.28,4.16 -1.25,2.96 2.95,4.28 1.2,1.61 1.42,0.31 2.7,-0.97 -0.21,2.56 2.07,0.66 2.59,-1.06 1.29,-1.49 -1.07,-4.78 0.45,-0.81 2.87,-1.08 -1.15,1.39 0.35,1.49 2.16,1.01 1.58,-0.64 1.76,-4.43 5.02,-1.75 2.91,-2.55 5.12,-2.55 0.87,-1.96 2.51,-1.08 0.52,-1.61 -1.05,-1.67 1.72,-1.1899998 -0.11,-3.28 1.72,-1.26 2.21,0.07 1.079997,-1.69 v 0 l -0.61,-1.61 2.76,-2.03999998857438 z"
     title="Jász-Nagykun-Szolnok"
     id="HU-JN" />
  <path
     d="m 39.150003,62.949999 3.57,-2.77 1.94,-3.02 2.27,0.6 3.44,3.05 1.98,-0.08 1.74,2.41 -1.41,0.41 -0.03,0.78 2.77,-0.34 -1.13,0.96 -1.39,5.44 2.9,1.46 1.44,4.15 -1.32,2.08 -1.13,-0.66 -1.22,2.13 -2.87,-0.03 -2.11,-1.12 -1.1,-1.98 -4.46,-0.3 -1.42,-1.55 0.64,-0.82 -4.98,-3.2 v 0 l 3.34,-4.02 z"
     title="Szolnok"
     id="HU-SK" />
</svg>
