<?xml version="1.0" encoding="UTF-8" standalone="no"?>
<!-- Created for MapSVG plugin: http://mapsvg.com -->

<svg
   mapsvg:geoViewBox="16.113807 48.586431 22.897693 45.736783"
   width="120.78"
   height="145.96001"
   version="1.1"
   id="svg1"
   xmlns="http://www.w3.org/2000/svg"
   xmlns:svg="http://www.w3.org/2000/svg"
   xmlns:mapsvg="http://mapsvg.com">
  <defs
     id="defs1" />
  <path
     d="m 82.089998,71.26 0.13,0.68 2.51,-2.78 3.48,4.5 1.15,6.74 -0.82,0.73 -1.76,-0.17 -0.53,1.25 0.77,1.19 -1.2,6.31 -1.59,-0.43 -0.7,-2.71 -0.37,0.63 -1.85,-0.13 -0.47,2.28 -1.92,-0.73 -0.22,-3.14 -2.46,-6.38 -0.04,-2.23 1.05,-1.16 -0.73,-5.19 1.13,-1.94 z"
     title="Kaposvár"
     id="HU-KV" />
  <path
     d="m 49.109998,28.27 6.3,-0.31 16.49,-8.03 3.57,-2.67 8.48,-3.26 4.06,-2.53 3.2,0.21 2.19,-2.0100005 -0.05,-3.37 L 106.99,-4.8339842e-7 115.07,1.5299995 l 0.58,-1.04999998 0.43,0.4 v 0 l 2.79,3.64999998 1.91,5.6900005 -2.3,1.96 1.83,0.65 -0.96,0.49 0.88,3.74 -1.06,2.12 1.29,5.44 v 0 l -3.87,1.43 0.4,3.26 -2.19,-0.17 -3.14,1.75 1.44,3.42 0.98,-0.5 0.34,0.87 -1.13,1.19 -0.3,2.07 -2.62,2.52 0.67,1.17 -3.05,3.56 1.3,3.56 -1.25,3.89 -1.94,1.27 -1.19,-0.65 0.02,6.93 -0.71,0.78 0.88,0.71 2.64,7.89 -0.19,1.41 -1.3,0.18 -0.64,0.97 -0.53,-0.55 -1.63,2.04 -1.54,0.44 0.83,2.2 3.41,-1.2 1.16,3.57 1.5,-0.33 0.51,4.96 -1.06,2.85 -1.98,1.38 v 0 l -0.6,0.53 -2.13,-1 -1.37,0.55 -0.45,-1.34 -4.680002,0.23 -2.18,6.25 0.35,3.6 -1.11,0.96 -1.08,-0.65 -0.54,0.72 -2.05,-0.34 -0.5,1.03 -1.26,-0.31 -1.21,1.37 -2.51,-0.35 -0.11,-1.18 -1.32,0.34 -0.6,-1.07 -0.87,0.39 0.2,1.16 -1.59,1.79 -1.8,-0.6 -1.25,-3.55 -1.75,1.33 0.91,1.89 -1.89,1.88 -0.02,1.77 -1.55,2.83 -0.16,6.19 -1.86,0.99 1.36,1.49 -0.53,3.67 -1.42,0.23 -0.13,1.09 -2.49,1.02 0.39,2.2 1.99,2.72 -0.08,1.93 -2.72,0.78 1.78,6.37 1.44,0.16 -0.82,-1.91 0.69,-0.3 0.72,1.6 2.84,0.1 -0.04,1.84 2.25,1.36 -0.28,1.23 1.17,0.89 -0.63,0.75 0.76,1.98 -0.64,1.73 -2.17,-0.39 -0.72,1.07 -0.81,-1.85 -1.7,1.63 0.23,1.15 -1.59,0.52 v 0 l -2.72,-7.26 -5.03,-4.32 -3.48,0.34 -8.38,-2.07 -0.67,0.98 0.81,1.37 -0.89,0.65 -1.32,-0.43 -0.24,-1.19 -1.31,1.14 -0.77,-0.27 -0.32,-1.91 -3.45,0.66 -0.04,-2.42 0.67,1.03 0.95,-0.78 2.29,-0.08 -0.05,-0.5 -2.55,0.27 0.02,-1.12 1.24,-0.03 -0.62,-0.66 0.47,-1.76 -0.7,-0.13 -0.1,1.49 -0.83,0.6 -1.35,-2.63 -0.78,-0.12 -0.27,0.63 0.95,0.82 -0.31,1.58 -2.01,0.56 1.06,-2.81 -0.96,-0.06 -0.42,1.1 -0.87,-0.3 -0.26,-1.02 1.07,-1.41 -2.19,0.13 -2.12,-1.63 2.95,-1.24 0.31,-0.93 -3.59,0.13 0.26,-2.15 1.18,-1.36 -3.53,-0.45 0.14,-0.76 1.71,0.31 -1.02,-0.3 -0.48,-1.69 -2.909998,0.18 0.12,-0.63 1.279998,0.05 1.21,-2.23 -2.009998,0.03 0.799998,-1.15 -0.539998,-0.79 -0.3,0.6 -2.85,0.23 -0.32,-2.83 0.88,-0.57 -0.13,-2.14 -2.08,-1.1 0.1,-1.4 -1.99,-0.48 -1.09,0.6 -0.38,-1.23 -0.88,0.3 -0.93,-0.84 0.1,-0.7 -1.08,-0.42 -0.65,0.66 -1.71,-2 -4.88,-2.52 -3.1899996,-0.49 -0.32,-2.38 -1.78,0.33 -2.32,-2.51 L 0.98000039,90.41 3.9355463e-7,83.85 v 0 L 2.4900004,85.78 l 3.01,-0.61 0.47,3.32 1.45,-0.49 2.6199996,-2.71 2.58,1.33 0.96,-0.52 1.48,-0.94 -0.39,-1.76 0.96,-1.47 h 0.96 l 0.11,-1.12 -1.38,-5.03 -1.06,-0.7 v 0 l 0.66,-3.05 1.29,-0.06 1.38,1.96 0.84,-0.4 0.49,-1.83 0.93,-0.1 v 0 l 1.64,0.8 0.11,0.94 1.23,0.14 1.19,-0.4 0.14,-2.56 4.08,-0.29 0.27,-7.14 1.03,0.08 2.169998,-3.49 L 31.01,45.33 l 0.459998,-5.87 3.15,-2.96 1.07,-5.94 8.55,0.39 2.56,-1.86 z m 28.14,47.44 -1.06,1.16 0.05,2.23 2.45,6.38 -0.17,2.51 2.32,1.35 0.47,-2.28 1.85,0.13 0.37,-0.62 0.7,2.71 1.59,0.43 1.2,-6.31 -0.77,-1.19 0.53,-1.25 1.76,0.17 0.82,-0.73 -1.15,-6.74 -3.48,-4.5 -2.51,2.78 -0.49,-1.28 -3.83,-2.23 -1.37,2.09 z"
     title="Somogy"
     id="HU-SO" />
</svg>
