<?xml version="1.0" encoding="UTF-8" standalone="no"?>
<!-- Created for MapSVG plugin: http://mapsvg.com -->

<svg
   mapsvg:geoViewBox="16.113807 48.586431 22.897693 45.736783"
   width="164.14005"
   height="112.04"
   version="1.1"
   id="svg1"
   xmlns="http://www.w3.org/2000/svg"
   xmlns:svg="http://www.w3.org/2000/svg"
   xmlns:mapsvg="http://mapsvg.com">
  <defs
     id="defs1" />
  <path
     d="m 41.880015,66.230001 4.56,-9.4 2.98,1.14 0.57,-0.73 3.32,0.19 0.09,-2.01 1.36,-0.23 0.03,-1.48 -1.8,-1.95 0.38,-1.5 3.35,-0.37 1.12,1.48 1.53,0.41 1.95,-0.76 1.79,0.27 1.31,3.45 -1.07,2.75 1.63,0.17 0.19,1.35 4.34,-0.18 0.95,7.27 1.13,1.54 -0.86,0.39 0.21,1.48 -2.21,0.19 -0.59,1.96 -3.1,-1.6 -0.13,5.79 2.16,0.42 -1.11,2.589996 -1.76,0.55 -1.76,-1.769996 -0.35,-1.54 -7.33,0.6 -2.07,-2.82 -1.42,-0.78 -2.04,0.13 -0.76,-2.02 -5.42,-2.43 v 0 l 0.81,-1.71 z"
     title="Nyíregyháza"
     id="HU-NY" />
  <path
     d="m 104.62001,2.0600008 2.52,0.14 -0.89,2.34 -1.29,0.8 2.41,3.59 4.73,1.2300002 -0.65,3.44 2.11,2.38 0.27,3.73 1.87,1.89 1.9,4.03 1.8,-1.95 2.57,0.28 0.31,-0.55 2.35,1.37 2.89,-1.59 0.99,0.71 -0.39,1.15 1.64,0.34 -0.05,1.54 1.5,2.31 0.61,-0.29 2.9,1.96 -0.62,2.6 0.98,2.59 0.76,-0.14 1.32,2.15 -0.87,0.33 0.98,3.15 -0.7,1.29 2.58,0.26 1.48,1.29 3.17,0.7 5.96,-3.81 1.88,0.04 1.04,1.44 0.77,-0.52 -0.34,-1.2 1.66,0.59 0.91,-0.65 0.44,2.11 0.87,-1.54 0.87,0.19 0.49,0.98 -0.66,1.5 0.91,0.63 0.33,1.71 0.61,-0.27 1.54,1.5 0.61,2.9 0.51,-0.71 0.67,0.35 -1.42,5.65 -2.63,2.95 0.36,1.04 2.61,0.42 1.79,1.29 0.56,2.26 -1.05,0.21 -3.8,5.74 -1.61,0.05 -3.07,2.28 -3.15,-0.17 0.85,1.69 -0.45,1.69 1.52,1.97 -0.27,1.299996 -2.35,1.11 -3.37,-0.12 -2.86,6.31 -5.79,1.38 -0.53,0.75 -5.48,-0.07 -6.09,-5.12 -3.02,0.93 -2.01,7.11 0.35,1.25 -6.74,-1.12 -3.46,-2.35 -0.04,3.21 -2.83,1.8 -1.89,-0.13 -0.55,4.24 -2.75,1.11 -0.58,3.840003 -1.62,0.93 -1.25,5.67 -1.359995,2.57 -4.09,-0.53 v 0 l -1.1,-1.05 -1.29,-7.19 -2.59,-1.61 -0.91,0.19 -2.04,4.86 -1.94,1.6 -1.6,-3.06 0.68,-2.62 -2.6,-1.56 0.46,-3.660003 -1.78,-0.46 -3.75,-3.41 -3.28,0.94 -0.3,3.5 -2.23,1.89 -0.39,1.270003 -2.16,1.09 -2.63,-0.87 -0.63,-1.450003 -2.59,-0.54 0.44,-2.16 -4.76,-0.31 -1.21,-3.28 -2.08,0.15 -0.1,0.8 -3.92,-0.53 -3.4,-5.98 -1.32,-0.07 -3.91,-2.43 0.01,-3.59 2.01,-9.349996 -0.88,-0.27 0.04,-3.57 v 0 l 5.42,2.43 0.76,2.02 2.04,-0.13 1.42,0.78 2.07,2.82 7.33,-0.6 0.35,1.54 1.76,1.769996 1.76,-0.55 1.11,-2.589996 -2.16,-0.42 0.13,-5.79 3.1,1.6 0.59,-1.96 2.21,-0.19 -0.21,-1.48 0.86,-0.39 -1.13,-1.54 -0.95,-7.27 -4.34,0.18 -0.19,-1.35 -1.63,-0.17 1.07,-2.75 -1.31,-3.45 -1.79,-0.27 -1.95,0.76 -1.53,-0.41 -1.12,-1.48 -3.35,0.37 -0.38,1.5 1.8,1.95 -0.03,1.48 -1.36,0.23 -0.09,2.01 -3.32,-0.19 -0.57,0.73 -2.98,-1.14 -4.56,9.4 v 0 l -2.27,-0.88 -0.65,1.04 -1.13,0.02 -0.12,1.29 -6.02,-0.45 -0.38,0.8 -4.59,0.71 -1.99,-0.74 -2.89,0.33 -4.42,2.14 -1.06,-2.97 -2.13,-0.91 -0.49,-1.18 -3.28,-2.19 -3.5500001,-0.9 -0.83,1.36 -2.19,-0.99 v 0 l -1.8,-1.26 0.49,-0.74 -2.580000026953,-3.88 4.520000026953,-4.48 0.32,-1.16 1.75,0.86 1.27,-0.48 0.63,0.63 -0.26,1.8 1.9800001,-0.4 2.45,0.86 0.92,-0.62 -0.48,-1.57 2.73,-2.14 1.06,2.22 2.71,-0.08 0.11,1.26 1.88,-0.23 1.64,1.29 1.57,-1.56 4.83,-0.01 0.53,-2.58 1.47,1.02 0.65,-0.34 0.09,-2.5 2.23,-0.83 -0.84,-0.92 -1.43,0.19 -0.38,-1.44 1.33,0.36 0.24,-0.7 -2.49,-2.21 -0.76,-2.01 1.31,-1.92 -0.47,-2.85 1.73,-2.79 1.23,-0.07 1.28,1.66 0.83,-1.85 2.03,0.42 0.11,0.61 1.57,-0.41 -0.36,-1.32 3.46,-2.05 1.51,-0.09 0.54,-1.02 3.15,1.85 4.82,0.56 4.2,-0.61 0.83,0.7 0.33,-1.58 0.76,0.7 1.7,-0.91 -0.08,1.75 1.5,-0.63 0.35,-1.69 1.17,0.63 0.51,-1.28 1.03,-0.26 -0.19,-1.36 1.38,-0.26 -0.15,-1.82 1.09,1.09 0.4,-1.37 1.02,2.48 0.91,-2.13 2.04,0.38 2,-1.18 2.1,0.87 0.62,-1.49 1.21,-0.58 -0.09,-1.16 0.66,0.67 2.25,-2.63 0.96,0.4 -0.48,-1.01 0.63,-1.3 2.67,-2.43 1.13,-0.15 -1.04,1.92 2.02,-0.03 -0.09,-1.19 1.34,0.77 0.47,1.26 0.69,-0.97 -1.09,-1.18 1.56,0.93 -0.05,-1.39 2.22,0.27 -0.86,-2.3 2.34,-3.27 1.44,-0.33 -1.67,-1.1000002 1.77,-0.06 -0.9,-0.9 0.42,-1.6 v 0 l 1.62,-0.35 -0.48,-1.37 1.87,-0.8 0.37,-1.87 L 101.68001,8.4631355e-7 Z"
     title="Szabolcs-Szatmár-Bereg"
     id="HU-SZ" />
</svg>
