<?xml version="1.0" encoding="UTF-8" standalone="no"?>
<!-- Created for MapSVG plugin: http://mapsvg.com -->

<svg
   mapsvg:geoViewBox="16.113807 48.586431 22.897693 45.736783"
   width="104.77002"
   height="75.499992"
   version="1.1"
   id="svg1"
   xmlns="http://www.w3.org/2000/svg"
   xmlns:svg="http://www.w3.org/2000/svg"
   xmlns:mapsvg="http://mapsvg.com">
  <defs
     id="defs1" />
  <path
     d="m 65.080005,1.5099992 1.87,-0.16 0.9,3.51 1.36,1.27 2.68,0.19 1.03,-1.67 0.95,-0.13 1.3,0.34 2.5,2.78 0.97,-0.21 0.61,1.45 -2.03,2.5699998 1.18,1.49 2.13,-2.18 2.1,0.98 1.07,-2.1299998 0.43,1.1199998 3.42,0.52 1.36,2.56 -1.16,2.99 3.4,-1.11 1.19,-2.49 1.17,-0.2 1,-1.65 1.16,0.38 1.32,-1.23 2.41,-0.6699998 1.630005,1.1999998 v 0 l 1.14,1.85 2.12,0.33 0.48,1.23 v 0 l -1.3,1 -0.62,2.1 -2.34,-0.25 -0.680005,2.21 -6.19,2.16 0.22,1.77 1.54,0.42 -0.16,0.59 2.71,2.02 -0.81,0.27 0.55,4.15 1.51,1.54 -4.39,1.58 -0.55,1.15 0.91,1.37 -1.9,0.99 0.25,2.71 -2.34,1.28 -1.34,3.25 -2.65,0.08 -2.24,-1.77 -6.18,1.05 0.38,1.75 2.71,0.82 1.32,1.28 -0.74,2.06 -1.48,0.7 -4.64,-4.17 -0.84,0.21 -0.56,5.03 -2.91,2.839996 -1.34,2.59 0.47,0.89 -2.89,-0.15 -0.55,1.08 -1.47,0.3 -0.18,1.38 -0.93,-1.94 -1.87,0.93 1.32,3.47 -0.84,1.51 0.59,0.49 -1.53,1.17 -1.12,-0.77 -3.89,3.49 v 0 l -2.75,-1.39 -2.22,3.11 -2.32,1.25 -0.17,0.99 1.46,0.21 0.66,0.96 -2.93,1.3 -2.65,-5.11 -0.39,-5.6 -2.88,-0.36 1.19,-3.39 1.66,-0.8 -1.93,-1.97 -2.94,-0.63 -2.99,0.4 -3.12,-1.81 -8.45,0.95 -1,-1.31 -3.95,-2.109996 -0.94,1.099996 -5.07,-0.909996 -1.03,1.099996 -1.53,-0.2 -1.49,-2.249996 -0.85,0.49 -1.08,-3.25 -3.0099999,-1.76 -6,-6.08 0.56,-2.49 3.91,-2.82 -0.33,-0.87 1.45,-1.27 0.29,-2.08 -0.54,-0.15 0.58,-0.79 -1.68,-1.76 -1.31,0.76 -1.49,-0.83 -2.4999999925778,-3.77 v 0 l 4.7899999925778,0.22 3.07,-2.87 1.63,1.7 1.1099999,-0.34 1.11,1.14 2.03,-1.72 2.21,0.98 2.5,-1.19 4.86,1.91 2.81,-0.6 2.03,1.28 1.16,-2.15 2.05,-0.57 1.96,-1.76 6.64,0.04 1.16,-0.67 1.3,1.19 2.09,-0.59 1.87,-1.86 1.02,0.13 0.04,1.34 1.27,0.92 0.13,-1.52 1.76,-0.7 0.46,-5.35 1.58,-1.58 -0.44,-2.86 1.89,-2.3499998 -0.19,-1.74 4.91,-1.98 4.58,-4.37999995585938 z"
     title="Nógrád"
     id="HU-NO" />
</svg>
