<?xml version="1.0" encoding="UTF-8" standalone="no"?>
<!-- Created for MapSVG plugin: http://mapsvg.com -->

<svg
   mapsvg:geoViewBox="16.113807 48.586431 22.897693 45.736783"
   width="95.089996"
   height="99.25"
   version="1.1"
   id="svg1"
   xmlns="http://www.w3.org/2000/svg"
   xmlns:svg="http://www.w3.org/2000/svg"
   xmlns:mapsvg="http://mapsvg.com">
  <defs
     id="defs1" />
  <path
     d="m 60.12,85.81 -3.59,2.61 -0.33,3.53 -3.31,-0.73 -1.1,0.96 -2.46,-3.57 2.73,-14.65 2.69,0.21 0.46,-2.42 -0.84,-0.73 0.18,-1.93 1.16,-0.46 0.74,1.12 1.95,-1.06 1.02,-1.75 1.99,0.56 0.64,2.58 -0.77,4.41 3.15,2.59 -0.4,2.43 1.43,0.63 0.25,2.17 v 0 l -0.93,0.11 -0.49,1.83 -0.84,0.4 -1.38,-1.96 -1.29,0.07 z"
     title="Nagykanizsa"
     id="HU-NK" />
  <path
     d="M 63.87,1.2695313e-7 70.97,6.2800001 l 2.83,0.71 1.99,-1.05 1.709998,1.5 0.46,1.5 1.76,1.3699999 0.21,1.44 -1.1,0.75 -1.06,3.89 2.57,1.19 2.44,-0.67 2.36,3.11 1.08,0.37 0.44,1.32 -0.71,1.36 1.91,2.18 -1.33,1 0.01,1.92 2.19,2.47 0.98,2.92 5.38,5.58 v 0 l -2.44,0.67 -2.56,1.86 -8.54,-0.39 -1.06,5.94 -3.15,2.96 L 76.88,56.05 77.579998,70.4 75.41,73.89 l -1.03,-0.08 -0.27,7.14 -4.08,0.29 -0.14,2.56 -1.19,0.4 -1.23,-0.14 -0.11,-0.94 -1.64,-0.8 v 0 l -0.25,-2.18 -1.42,-0.63 0.4,-2.43 -3.15,-2.59 0.77,-4.42 -0.63,-2.57 -1.99,-0.56 -1.02,1.75 -1.95,1.06 -0.74,-1.12 -1.16,0.46 -0.18,1.94 0.84,0.73 -0.46,2.42 -2.69,-0.21 -2.72,14.65 2.45,3.57 1.1,-0.96 3.31,0.73 0.33,-3.53 3.59,-2.61 v 0 l 1.06,0.71 1.38,5.03 -0.11,1.12 h -0.96 l -0.96,1.47 0.39,1.76 -1.48,0.94 -0.96,0.52 -2.58,-1.33 -2.62,2.71 -1.45,0.5 -0.47,-3.32 -3,0.61 -2.49,-1.93 v 0 l 0.42,-1.11 -1.48,-1.5 0.35,-0.98 -1.28,-0.1 -0.37,-1.09 -1.01,-0.35 v -1.19 l -0.92,0.95 -2.83,-2.49 -1.45,0.93 -0.86,-0.83 -0.77,0.77 -0.63,-1.13 -1.2,0.1 -0.63,-1.71 -1.26,1.06 -4.21,-7.28 -1.31,0.39 0.6,-1.7 -1.26,-0.67 -1.95,0.27 -0.41,-0.93 -2.51,0.52 -1.72,-2.46 -4.98,-2.66 0.89,-1.18 -0.69,-0.76 0.63,-1.65 -1.22,-0.54 -0.59,-3.28 -2.56,-0.82 -0.26,-1.92 -3.1900003,-3.78 -2.15,-0.5 -0.69,-1.74 -1.89,-0.86 -0.66,-1.49 0.6,-2.5 2.42,0.71 0.91,-4.76 -4.95999999,-0.76 -0.43,-0.41 0.89999999,-1.09 -0.89999999,-1.33 v 0 l 2.19999999,-2.49 -0.25,-2.53 1.41,-1.01 -0.23,-1.01 L -2.9309086e-7,36.78 0.00999971,35.35 3.4799997,34.23 l 3.46,1.66 0.23,-0.77 3.9000003,-1.83 1.28,-1.18 0.04,-3.88 5.9,-3.04 1.57,-1.87 0.52,-2.71 3.63,-4.53 1.82,0.67 1.64,-2 1.5,-0.21 1.31,1 3.15,-0.42 3.87,0.98 0.82,-2.98 1.84,-0.36 3.45,-3.6899999 0.42,0.9999999 2.73,0.14 1.62,-0.7999999 1.96,0.6499999 0.36,1 5.06,0.25 0.99,-1.3999999 -0.29,-1.16 2.58,-2.68 -1.25,-4.51 1.27,-0.89999997 0.36,0.65999997 1.49,-0.49999997 0.26,2.27999997 1.34,-0.98 1.62,0.88 z M 38.24,20.87 l -0.78,2.65 -0.21,1.92 1.24,1.16 -0.63,3.8 1.63,2.46 -1.66,2.65 1.7,2.23 1.34,-0.29 0.92,-1.33 3.7,0.34 3.39,-0.89 -0.63,-3.44 0.89,-0.72 0.04,-2.43 -1.71,-2.76 0.46,-1.5 -1.07,-1.3 -1.95,-0.28 -0.87,-2.13 -2.37,-0.26 -0.33,0.67 z"
     title="Zala"
     id="HU-ZA" />
  <path
     d="m 42.65,21.17 1.39,-0.17 0.87,2.13 1.95,0.28 1.07,1.3 -0.46,1.5 1.72,2.76 -0.04,2.43 -0.89,0.73 0.63,3.44 -3.39,0.89 -3.7,-0.34 -0.92,1.33 -1.35,0.28 -1.69,-2.23 1.66,-2.65 -1.64,-2.46 0.64,-3.8 -1.24,-1.16 0.21,-1.92 0.77,-2.64 z"
     title="Zalaegerszeg"
     id="HU-ZE" />
</svg>
