<?xml version="1.0" encoding="UTF-8" standalone="no"?>
<!-- Created for MapSVG plugin: http://mapsvg.com -->

<svg
   mapsvg:geoViewBox="16.113807 48.586431 22.897693 45.736783"
   width="128.35001"
   height="148.57999"
   version="1.1"
   id="svg1"
   xmlns="http://www.w3.org/2000/svg"
   xmlns:svg="http://www.w3.org/2000/svg"
   xmlns:mapsvg="http://mapsvg.com">
  <defs
     id="defs1" />
  <path
     d="m 19.810003,0.90999802 2,-0.7 v 0 l 2.5,3.76999998 1.49,0.83 1.31,-0.77 1.68,1.76 -0.58,0.79 0.54,0.15 -0.29,2.08 -1.45,1.26 0.33,0.87 -3.92,2.82 -0.56,2.48 6,6.08 3.01,1.76 1.07,3.26 0.86,-0.5 1.49,2.249996 1.53,0.2 1.04,-1.099996 5.07,0.909996 0.94,-1.099996 3.94,2.099996 1,1.31 8.46,-0.95 3.12,1.81 2.99,-0.4 2.94,0.63 1.92,1.97 -1.65,0.8 -1.19,3.39 2.88,0.36 0.39,5.61 2.65,5.11 2.93,-1.3 -0.66,-0.96 -1.46,-0.21 0.16,-0.99 2.33,-1.24 2.22,-3.12 2.74,1.39 v 0 l 3.15,3.12 -1.38,3.34 2.59,5.09 1.72,0.49 1.64,4.29 -0.36,2.17 1.21,1.28 v 0 l -1.41,3.52 0.59,0.69 -0.48,1.28 4.6,4.08 3.08,-2.46 2.55,0.6 1.28,-0.87 0.98,0.65 -3.77,5.63 4.589997,3.9 2.76,4.34 7.51,5.8 4.13,1.91 2.73,3 0.19,2.28 2.43,3.599996 -2.73,6.75 5.14,1.82 3.16,2.38 0.42,1.62 v 0 l 1.45,3.57 -3.34,4.02 v 0 l -1.4,3.35 0.57,2.56 2.27,3.98 0.88,4.5 2.02,1.11 -1.58,3.5 v 0 l -2.29,-1.5 -6.4,2.56 -1.41,2.41 0.12,2.41 -4.88,-1.44 -4.83,-2.99 -3.23,6.85 -0.83,0.07 v 0 l -2.62,-1.55 -1.969997,0.78 -8.41,-6.25 v 0 l -4.03,-4.56 -2.08,-6.73 -2.97,-5.17 -2.21,2.05 -5.08,-1.89 -2.67,8.76 -4.38,-1.28 -4.31,4.08 -1.33,0.01 0.17,1.35 -2.76,3.48 -3.71,-5.28 1.91,-4.33 2.73,-3.25 -5.37,-5.38 -1.64,-0.32 -1.03,1.32 -2.39,0.65 -2.03,4.67 -0.81,-1.25 -3.31,-0.13 -2.39,3.29 -3.15,1.04 -0.76,2.72 -2.26,1.24 -3.84,-1.87 -0.21,-0.75 -6,-1.35 1.69,2.87 -0.72,1.85 v 0 l -1.76,-2.47 -4.29,-3.6 -2.36,-10.18 0.78,-6.09 2.35,-4.26 1.03,-5.82 -3.56,-0.72 -0.64,-1.64 0.48,-1.3 -1.73,-0.41 0.61,-0.76 -0.37,-1.389996 -4.08,-3.61 -5.3600003,-7.36 2.82,-3.3 -0.33,-3.99 -2.98,-4.5 -2.21,-0.04 -2.94000003,-5.33 -0.33,-2.82 0.72,-1.37 -0.9300000039843,-1.96 v 0 l 2.8400000339843,-2.28 0.01,-1.87 1.53,-0.75 0.34,-1.13 3.58,-2.14 -3,-2.92 2.73,0.01 -0.09,-1.39 3.5800003,2.02 4.12,0.56 -0.02,-2.46 -1.33,-2.97 0.34,-2.74 4.3,-1.1 2.02,1.48 1.8,-1.98 -1.99,-1.86 0.11,-3.42 -0.92,-1.04 -0.79,-3.78 -5.17,-2.25 v 0 l 0.79,-1.18 -1.83,-1.21 -0.77,-2.039996 -2.7000003,-1.9 -2.69,-0.76 0.38,-5.12 -0.7,-1.41 1.48,-1.73 -0.6,-2.65 0.81,-0.12 -1.77,-2.83 1.37,-1.84 2.5900003,0.35 1.32,-1.17 0.04,-3.84 1.04,-1.17 -0.54,-0.93 0.79,-1.24 1.13,-0.63 0.98,0.65 2.55,-0.39 0.42,-1.3099999765625 z m 14.95,62.30999598 0.33,-2.65 -3.18,-0.41 -1.54,0.79 0.79,2.35 -4.03,0.25 -1.11,1.59 -2.41,-0.83 -1.9,1 0.99,2.77 -1.29,1.04 0.88,-0.01 -0.05,2.69 -0.78,0.12 1.44,0.47 -0.79,1.59 1.07,1.04 -0.87,1 1.01,1.21 1.45,-0.01 1.72,2.83 -1.07,1.34 0.7,0.45 -0.16,2.15 -1.71,1.6 0.43,2.62 -0.98,1.06 0.58,2.22 5.69,-2.11 1.01,1.17 4.64,-2.92 1.94,2.39 -0.63,1.04 3.83,3.88 0.88,-0.97 2.72,-0.57 2.41,-4.58 3.36,-3.28 0.6,0.23 1.42,-2.58 1.39,0.28 1.84,-2.79 3,-0.9 -1.79,-3.9 0.39,-3 -4.96,0.92 -1.69,-3.81 -2.22,0.61 -1,-1.05 -1.61,0.11 -2.72,-2.62 1.17,-0.68 -2.6,-1.73 0.76,-0.09 0.02,-0.89 -1.2,-1.68 -2.12,-0.44 -1.41,-1.32 z"
     title="Pest"
     id="HU-PE" />
</svg>
