<?xml version="1.0" encoding="UTF-8" standalone="no"?>
<!-- Created for MapSVG plugin: http://mapsvg.com -->

<svg
   mapsvg:geoViewBox="16.113807 48.586431 22.897693 45.736783"
   width="90.279984"
   height="98.210022"
   version="1.1"
   id="svg1"
   xmlns="http://www.w3.org/2000/svg"
   xmlns:svg="http://www.w3.org/2000/svg"
   xmlns:mapsvg="http://mapsvg.com">
  <defs
     id="defs1" />
  <path
     d="m 18.569995,10.770007 3.52,-0.72 0.08,-0.7399995 5.05,-3.82 0.56,1.02 -0.55,1.76 0.8,0.83 2.08,0.19 2.46,1.5299995 1.41,-1.7199995 0.64,1.9699995 0.57,-1.2999995 0.25,2.0899995 0.71,-0.04 0.18,-4.5799995 1.36,1.97 -0.55,1.1099995 0.88,1.46 0.05,2.92 3.59,0.9 1.45,-0.97 0.67,0.59 2.02,-0.34 -0.55,-2.31 4.48,-2.48 1.63,3.19 2.68,1.73 1.01,-0.09 0.07,2.02 1.5,3.21 -0.29,2.04 2.14,0.26 2.34,-0.76 4.8,-4.37 -1.26,-3.03 2.71,-2.09 4.26,-0.47 0.1,-2.3799995 5.99,-4.26 1.25,-2.19 -1.42,-1.32 3.6,-0.96000005 0.1,-0.6199999988281 2.01,0.2799999988281 v 0 l 0.16,5.42000005 2.52,2.34 1.69,3.2699995 1.23,5.01 1.73,3.17 -0.16,2.36 -3.25,4.96 -3.46,1.98 -4.13,0.62 -2.08,3.23 0.26,2.01 2.67,4.07 0.25,5.59 2.38,5.66 -0.04,3.79 -2.83,4.83 -0.42,2.07 1.21,8.24 2.12,3.58 -0.99,5.91 -1.47,0.17 -1.76,-1.34 -0.95,0.13 0.84,3.97 -1.04,1.17 -0.76,-0.65 -2.92,3.43 1.17,0.8 3.32,-2.31 -0.74,2.01 0.53,1.5 -1.75,0.6 -2,5.62 -0.62,-1.31 0.34,-2.02 -1.34,0.25 -1.01,1.2 -0.08,2.29 3.62,1.08 -0.79,2.16 -1.24,-0.56 0.09,1.41 v 0 l -3.22,0.17 -1.18,-0.76 -1.52,0.81 -5.07,-3.03 -0.71,0.63 -3.63,-4.7 -2.41,-1.5 -0.76,-1.99 -1.94,1.01 -2.18,-3.71 0.69,-1.32 -1.85,0.24 -1.99,-1.39 1,-2.86 -0.76,-1.64 0.62,-1.02 -0.53,-0.81 -0.17,1.23 -0.81,-0.24 -1.46,-2.56 -1.88,-0.35 -0.72,-0.98 0.13,3.97 -1.67,1.13 0.39,0.73 -1.88,0.3 0.07,1.13 -5.6,3.46 -1.25,-0.05 -0.79,-1.52 1.73,-0.16 1.88,-1.34 1.75,-4.82 -0.56,-1.5 -1.31,0.47 -2.21,-0.87 -0.17,-4.16 1.35,-1.4 -0.13,-1.46 -3.28,-1.7 -0.71,-2.07 0.25,-2.79 -2.83,-2.49 -4.25,2.01 -3.68,-0.84 -3.76,1.61 0.02,3.8 1.38,1.61 0.01,2.06 -4.53,2.96 -1.56,-1 -1.7500003,0.86 0.09,2.97 1.4600003,0.66 -0.67,0.94 -1.9400003,-2.54 -1.69,0.16 -0.58,1.05 -2.1,-0.75 v 0 l 1.98,-1.38 1.05,-2.85 -0.51,-4.97 -1.5,0.33 -1.16,-3.57 -3.40999997,1.2 -0.8299999985547,-2.21 1.5399999685547,-0.44 1.63,-2.04 0.53,0.55 0.64,-0.97 1.3,-0.18 0.19,-1.41 -2.63,-7.88 -0.88,-0.71 0.72,-0.78 -0.02,-6.93 1.19,0.65 1.94,-1.27 1.25,-3.88 -1.3,-3.57 3.05,-3.56 -0.66,-1.17 2.6100003,-2.51 0.3,-2.07 1.13,-1.2 -0.34,-0.86 -0.99,0.5 -1.4400003,-3.43 3.1400003,-1.74 2.19,0.17 -0.4,-3.26 z"
     title="Tolna"
     id="HU-TO" />
</svg>
