<?xml version="1.0" encoding="UTF-8" standalone="no"?>
<!-- Created for MapSVG plugin: http://mapsvg.com -->

<svg
   mapsvg:geoViewBox="16.113807 48.586431 22.897693 45.736783"
   width="96.509995"
   height="65.139999"
   version="1.1"
   id="svg1"
   xmlns="http://www.w3.org/2000/svg"
   xmlns:svg="http://www.w3.org/2000/svg"
   xmlns:mapsvg="http://mapsvg.com">
  <defs
     id="defs1" />
  <path
     d="m 84.430001,3.1787109e-6 3.31,0.6300000012891 v 0 l 5.17,2.25000002 0.8,3.78 0.92,1.04 -0.11,3.4199998 1.99,1.86 -1.79,1.98 -2.02,-1.48 -4.31,1.1 -0.34,2.74 1.33,2.96 0.02,2.46 -4.12,-0.56 -3.58,-2.02 0.09,1.39 -2.74,-0.01 3.01,2.92 -3.59,2.14 -0.34,1.13 -1.52,0.75 -0.01,1.87 -2.84,2.28 v 0 l -2.43,1.02 -3.46,-0.1 -0.78,0.89 -3.67,-1.32 -1.11,0.93 -1.27,-0.29 -1.16,2.33 -0.85,-0.44 v 0 l -0.25,-2.24 -3.87,-3.42 -1.3,0.37 -3.22,-1.91 -3.81,0.03 -0.97,0.83 -2.41,4.33 1.6,3.17 1.35,-0.49 0.43,2.34 4.49,2.8 1.19,2.56 v 0 l -2.24,1.04 -0.47,1.66 -2.58,2.96 -1.66,-1.31 -1.67,1.94 -0.43,1.12 2.31,2.53 -2.97,0.9 -1.18,-0.54 -1.61,1.94 -1.71,-0.88 -1.67,-2.57 -2.43,-1.21 -0.49,-3.04 -4.92,-2.4 0.59,3.22 -1.08,1.21 -1,-0.65 -1.66,1.07 -1.27,-1.65 -2.11,0.99 0.37,2.19 -1.4,1.16 0.25,2.72 -2.5,3.65 0.67,1.86 -2.97,0.94 -1.83,1.46 0.28,0.73 v 0 l -1.7,-0.66 -5.0399996,0.74 -0.22,-2.08 -2.54,-1.7 1.6,-0.59 0.04,-1.5 -1.36,-1.14 -1.86,-0.2 -0.64,0.76 -2.59999995,-1.37 2.09999995,-4.33 -2.6599999546876,-4.19 v 0 l 1.3899999546876,-0.83 -1.16999995,-1.93 1.39999995,0.03 -0.13,-1.76 1.48,-1.21 0.56,0.35 0.03,-1.04 -2.41,-3.38 -0.1,-2.47 2.33,1 2.54,-0.92 -0.9,-1.09 -0.08,0.8 -1.92,-1.28 1.4,-2.78 -0.76,-0.44 0.99,-0.94 0.75,-3.46 -2.14,-0.56 -1.71,-2.15 1.26,-4.59 -0.83,-0.87 0.09,-1.27 0.93,-1.84 -0.84,-5.14 v 0 l 4.75,-0.68 2.32,-1.7499998 2.8099996,1.5099998 2.42,-1.3699998 4,0.02 8.85,2.0599998 4.85,-0.11 5.85,1.43 11.27,-2.8899998 3.23,-1.56 3.98,1.66 4.06,-1.66 9.44,0.76 3.29,-1.14 3.52,-2.38 1.55,-3.68 z"
     title="Komárom-Esztergom"
     id="HU-KE" />
  <path
     d="m 52.260001,44.020003 -1.19,-2.56 -4.49,-2.8 -0.43,-2.34 -1.35,0.49 -1.6,-3.17 2.41,-4.33 0.97,-0.83 3.81,-0.03 3.22,1.91 1.3,-0.37 3.87,3.42 0.25,2.24 v 0 l -3.68,0.68 0.64,2.94 -1.6,0.3 1.17,1.85 -0.84,-0.12 0.19,1.03 z"
     title="Tatabánya"
     id="HU-TB" />
</svg>
