<?xml version="1.0" encoding="UTF-8" standalone="no"?>
<!-- Created for MapSVG plugin: http://mapsvg.com -->

<svg
   mapsvg:geoViewBox="16.113807 48.586431 22.897693 45.736783"
   width="106.46"
   height="98.449997"
   version="1.1"
   id="svg1"
   xmlns="http://www.w3.org/2000/svg"
   xmlns:svg="http://www.w3.org/2000/svg"
   xmlns:mapsvg="http://mapsvg.com">
  <defs
     id="defs1" />
  <path
     d="m 46.02,25.809993 3.18,2.04 1.44,-1.59 0.87,0.09 1.1,3.21 -2.32,2.13 1.16,2.06 -0.06,6.69 -0.75,0.38 -1.94,-2.26 -0.72,0.04 -2.04,3.25 -1.27,0.4 -3.4,-2.55 0.03,-2.04 -1.63,-2.85 -0.47,-4.67 -2.95,-1.72 -0.14,-1.2 1.89,-0.71 1.61,1.26 1.17,-0.16 2.53,-0.53 -0.2,-1.17 1.66,0.52 z"
     title="Szombathely"
     id="HU-SH" />
  <path
     d="m 47.92,1.8799928 2.86,3.48 1,-0.38 2.28,1.5 3.6,-3.11 2.59,-1.08 0.54,0.89 1.4,-0.94 0.56,1.17 3.46,-1.87 1.55,3.25 1.59,1.41 2.44,-0.69 0.2,0.92 1.41,0.05 1.38,2.17 1.94,-2.78 2.63,-0.98 L 84.68,-7.1972657e-6 86.19,2.6699928 l -2.28,5.8 0.5,0.36 1.6,-1.51 5.23,-1.55 1.75,-2.73 2.63,0.75 v 0 l 0.91,3.39 2.12,1.91 -1.77,1.3800002 2.27,2.72 0.509998,-0.31 0.640002,1.17 2.99,1.71 0.92,-0.34 2.25,2.26 -6.23,2.44 -0.86,1.21 0.2,2.23 -1.54,1.26 0.52,8.2 0.6,0.58 -0.41,4.04 -1.12,1.46 -0.01,2.91 1.59,4.19 0.17,4.08 -2.46,2.05 -1.97,-1.45 -0.74,0.69 -1.27,-1.03 -3.34,1.65 -2.87,0.09 -0.2,2.44 v 0 l 0.05,3.01 -1.61,-0.88 -1.33,0.98 -0.31,-2.33 -1.49,0.5 -0.36,-0.66 -1.27,0.9 1.25,4.51 -2.58,2.68 0.29,1.16 -0.99,1.4 -5.06,-0.25 -0.36,-1 -1.96,-0.65 -1.62,0.8 -2.73,-0.14 -0.42,-1 -3.45,3.69 -1.84,0.36 -0.82,2.98 -3.87,-0.97 -3.15,0.42 -1.31,-1 -1.5,0.21 -1.64,2 -1.82,-0.67 -3.63,4.53 -0.52,2.71 -1.57,1.87 -5.9,3.04 -0.04,3.88 -1.28,1.18 -3.9,1.83 -0.23,0.78 -3.46,-1.65 -3.46,1.12 -0.01,1.43 3.52,-1.06 0.23,1.01 -1.41,1.01 0.25,2.53 -2.21,2.46 v 0 l -1.15,1.01 -0.66,-2.44 -2.81,-2.95 0.97,-2.86 -1.61,-0.42 0.39,-2.26 2.23,-0.95 0.64,-4.35 -4.02,-2.87 -0.77,-1.56 -5.12,-0.5 -7.29,2.8 -2.49,-0.42 -1.31,-1.42 1.64,-0.89 2.79,-3.71 1.41,-0.46 1.62,-4.25 1.79,-0.17 0.4499999,0.62 2.0800001,-1.33 0.75,-2.1 1.9,-0.01 0.22,-3.22 1.39,-3.52 0.88,2.02 1.98,-0.47 1.58,0.86 0.74,-1.87 1.45,0.42 0.63,1.1 3.57,-0.9 1.68,1.64 1.47,-0.24 0.19,-1.41 3.19,1.45 0.45,-0.91 2.05,-0.01 -4.1,-3.88 -1.68,1.03 -0.81,-0.91 0.29,-1.07 7.06,-2.59 -1.19,-1.31 -3.09,-0.82 0.15,-1.51 -1.11,-1.19 1.06,-1.49 0.46,0.57 0.42,-0.96 1.47,-0.2 0.13,-1.82 2.52,-0.41 -1.18,-2.84 -5.6,0.75 -0.42,-1.19 1.22,-2.23 -0.87,-2.62 -2.3,0.41 -1.12,-2.71 0.31,-0.7 0.3,0.56 1.2,-0.45 0.27,-1.01 0.21,-3.56 -0.87,-1.01 3.25,-0.12 1.16,-1.22 -0.12,-1.95 0.95,-0.49 -2.3,-7.27 -1.33,-0.42 -1.36,-1.88 1.69,-0.56 0.5,-1.43 -0.68,-1.1 0.3,-0.85 0.74,0.04 -1.37,-3.4100002 0.86,-0.56 2.67,0.7 -0.23,1.21 1.08,0.23 0.19,0.84 1.16,-0.98 0.07,-1.62 5.63,0.47 1.31,-2.3 2.96,-1.05 0.62,-1.48 z m -4.81,24.0300002 0.2,1.17 -3.7,0.69 -1.61,-1.26 -1.89,0.72 0.14,1.19 2.95,1.72 0.48,4.68 1.62,2.85 -0.03,2.04 3.4,2.55 1.26,-0.4 2.04,-3.25 0.72,-0.04 1.94,2.26 0.75,-0.38 0.06,-6.68 -1.16,-2.07 2.33,-2.13 -1.1,-3.21 -0.87,-0.09 -1.44,1.59 -3.18,-2.04 -1.25,0.62 z"
     title="Vas"
     id="HU-VA" />
</svg>
