<?xml version="1.0" encoding="UTF-8" standalone="no"?>
<!-- Created for MapSVG plugin: http://mapsvg.com -->

<svg
   mapsvg:geoViewBox="16.113807 48.586431 22.897693 45.736783"
   width="107.17"
   height="98.040009"
   version="1.1"
   id="svg1"
   xmlns="http://www.w3.org/2000/svg"
   xmlns:svg="http://www.w3.org/2000/svg"
   xmlns:mapsvg="http://mapsvg.com">
  <defs
     id="defs1" />
  <path
     d="m 9.0499992,7.950005 1.8899998,-1.58 2.239998,1.69 0.13,-0.9 0.7,-0.07 4.2,0.85 v 0 h 1.07 v 0 l 6.98,-1.42 1.5,-2.18 0.36,-3.25 3.1,0.79 1.82,-1.45999999 2.87,0.31 5.82,2.56999999 2.86,-2.70999999 3.27,4.09999999 1.44,-1.13 0.59,0.76 0.83,-0.37 0.44,1.37 1.85,-0.65 0.24,-1.5 0.93,-0.53 0.74,0.83 1.79,-0.72 0.79,1.25 -0.6,1.62 2.35,-0.43 -0.7,-1.25 0.77,-0.88 -0.35,-0.58 0.76,-0.23 1.73,2.52 3.75,-4.63999999 0.32,2.16999999 1.01,0.19 1.87,-2.4899999902344 2.41,1.8899999902344 1.2,2.78 v 0 l 2.66,4.19 -2.1,4.33 2.6,1.37 0.64,-0.76 1.86,0.2 1.36,1.14 -0.04,1.5 -1.61,0.58 2.54,1.7 0.22,2.08 5.04,-0.74 1.7,0.66 v 0 l 0.72,1.67 1.93,0.29 -1.66,1.98 0.89,3.62 1.6,-0.41 2.86,4.19 3.39,-2.16 1.18,-0.01 1.57,3.43 1.990003,1.91 1.79,0.05 0.62,1.18 -0.02,4.82 -1.06,2.99 1.16,4.36 -0.19,2.31 1.03,1.48 -2.75,2.18 0.74,3.49 2.12,3.96 2.08,-0.44 0.29,0.73 -2.37,0.71 -0.15,0.94 -1.89,1.13 -0.6,1.83 -4.020003,3.48 v 0 l -0.43,-0.39 -0.58,1.05 -8.08,-1.53 -13.64,6.3 0.05,3.37 -2.19,2.01 -3.2,-0.21 -4.06,2.53 -8.48,3.26 -3.57,2.67 -16.48,8.03 -6.3,0.32 v 0 l -5.38,-5.58 -0.97,-2.92 -2.19,-2.47 -0.01,-1.92 1.34,-1 -1.91,-2.18 0.71,-1.35 -0.44,-1.32 -1.08,-0.37 -2.35,-3.11 -2.44,0.67 -2.57,-1.18 1.06,-3.89 1.1,-0.75 -0.21,-1.44 -1.76,-1.37 -0.46,-1.5 -1.709998,-1.5 -1.9899998,1.06 -2.82,-0.71 -7.10000002714843,-6.28 v 0 l 0.19999999714843,-2.44 2.87000003,-0.09 3.34,-1.65 1.27,1.03 0.74,-0.69 1.9699998,1.45 2.46,-2.05 -0.17,-4.08 -1.59,-4.19 0.01,-2.91 1.12,-1.46 0.42,-4.04 -0.59,-0.58 -0.52,-8.2 1.539998,-1.26 -0.199998,-2.23 0.859998,-1.21 6.24,-2.44 -2.25,-2.26 -0.92,0.35 -2.99,-1.71 -0.64,-1.17 -0.499998,0.31 -2.26,-2.72 1.77,-1.38 -2.12,-1.91 z m 57.5599978,35.4 0.45,1.31 3.18,1.36 0.5,3.5 -3.7,3.91 5.14,5.45 0.2,2.92 2.12,0.29 1.16,-0.57 1.61,-3.71 3.78,-0.12 1.25,-4.95 -0.52,-1.06 0.85,-1.03 -4.24,-7.26 -3.52,-3.32 -2.08,-0.63 -3.17,3.64 z"
     title="Veszprém"
     id="HU-VE" />
  <path
     d="m 77.249997,42.080005 4.88,7.33 0.16,3.34 -1.45,5.18 -3.57,-0.1 -1.61,3.71 -2.68,0.69 -1.07,-1.46 0.27,-1.87 -5.15,-5.46 3.7,-3.91 -0.49,-3.5 -3.18,-1.37 -0.45,-1.31 3.01,-0.26 3.16,-3.64 2.08,0.64 z"
     title="Veszprém"
     id="HU-VM" />
</svg>
